<svg width="176" height="176" viewBox="0 0 176 176" fill="none" xmlns="http://www.w3.org/2000/svg">
<path d="M164.577 95.1391C164.633 94.3599 164.846 93.7048 165.215 93.1739C165.584 92.6429 166.083 92.2493 166.711 91.9929C167.339 91.7441 168.073 91.6496 168.912 91.7095C169.743 91.769 170.452 91.9664 171.038 92.302C171.624 92.6451 172.062 93.1056 172.352 93.6836C172.642 94.2616 172.759 94.9403 172.703 95.7195C172.664 96.2665 172.542 96.7624 172.337 97.2071C172.132 97.6594 171.853 98.0348 171.5 98.3334L170.773 97.92C171.119 97.5983 171.377 97.2553 171.547 96.8908C171.723 96.5344 171.827 96.1314 171.859 95.6818C171.923 94.7902 171.69 94.0882 171.162 93.5761C170.634 93.0639 169.86 92.7714 168.841 92.6986C167.815 92.6253 167.003 92.8046 166.408 93.2365C165.812 93.6684 165.482 94.3301 165.419 95.2218C165.387 95.6714 165.429 96.0848 165.545 96.4621C165.668 96.8475 165.878 97.224 166.176 97.5917L165.397 97.8975C165.098 97.5523 164.875 97.141 164.728 96.6636C164.589 96.1942 164.538 95.6861 164.577 95.1391Z" fill="#020E10"/>
<path d="M163.807 100.932C163.891 100.383 164.115 99.9912 164.477 99.7581C164.846 99.5335 165.339 99.4685 165.955 99.563L172.014 100.493L171.875 101.395L165.883 100.475C165.089 100.354 164.643 100.608 164.546 101.239C164.518 101.425 164.515 101.595 164.536 101.751L163.782 101.612C163.766 101.374 163.774 101.147 163.807 100.932Z" fill="#020E10"/>
<path d="M170.02 105.341L171.022 105.556L170.786 106.658L169.783 106.443L170.02 105.341ZM163.309 104.016L168.663 105.165L168.472 106.058L163.117 104.908L163.309 104.016Z" fill="#020E10"/>
<path d="M161.573 110.375C161.724 109.848 161.967 109.426 162.301 109.108C162.642 108.791 163.048 108.588 163.52 108.497C163.997 108.415 164.513 108.454 165.069 108.614C165.907 108.854 166.498 109.271 166.844 109.863C167.197 110.456 167.259 111.15 167.031 111.945C166.937 112.269 166.787 112.574 166.58 112.859C166.374 113.143 166.135 113.36 165.866 113.509L165.314 113.022C165.576 112.871 165.791 112.682 165.957 112.457C166.122 112.238 166.236 112.017 166.301 111.793C166.458 111.245 166.406 110.772 166.145 110.377C165.891 109.983 165.442 109.694 164.8 109.509C164.172 109.329 163.631 109.334 163.178 109.524C162.732 109.716 162.43 110.086 162.272 110.635C162.208 110.859 162.187 111.107 162.21 111.379C162.232 111.659 162.317 111.934 162.466 112.203L161.74 112.323C161.591 112.053 161.502 111.738 161.472 111.378C161.448 111.027 161.482 110.693 161.573 110.375Z" fill="#020E10"/>
<path d="M160.437 114.117L167.869 116.922L167.547 117.776L162.961 116.045L162.953 116.066L164.335 119.297L163.925 120.383L162.429 116.88L158.718 118.671L159.128 117.585L162.51 115.899L162.518 115.878L160.115 114.971L160.437 114.117Z" fill="#020E10"/>
<path d="M154.814 126.087C155.122 125.52 155.502 125.175 155.953 125.052C156.411 124.934 156.924 125.029 157.491 125.337L160.016 126.709L160.527 125.769L161.151 126.108L160.639 127.048L162.115 127.85L161.679 128.652L160.204 127.85L159.375 129.375L158.751 129.036L159.58 127.511L157.135 126.182C156.758 125.978 156.428 125.901 156.144 125.951C155.867 126.006 155.631 126.211 155.437 126.568C155.38 126.673 155.336 126.786 155.305 126.906C155.274 127.026 155.248 127.136 155.228 127.236L154.539 127.041C154.539 126.93 154.565 126.781 154.615 126.595C154.665 126.408 154.731 126.239 154.814 126.087Z" fill="#020E10"/>
<path d="M152.015 130.605C152.305 130.158 152.654 129.834 153.062 129.633C153.47 129.432 153.91 129.355 154.381 129.401C154.855 129.458 155.334 129.644 155.82 129.958C156.305 130.273 156.666 130.634 156.905 131.039C157.145 131.455 157.257 131.89 157.24 132.345C157.222 132.799 157.068 133.25 156.778 133.697C156.492 134.138 156.145 134.459 155.737 134.66C155.324 134.867 154.882 134.942 154.408 134.886C153.936 134.839 153.458 134.659 152.973 134.344C152.488 134.029 152.125 133.664 151.884 133.248C151.646 132.842 151.538 132.409 151.559 131.948C151.576 131.494 151.728 131.046 152.015 130.605ZM152.629 131.004C152.351 131.432 152.279 131.874 152.414 132.329C152.555 132.787 152.909 133.201 153.476 133.569C154.049 133.941 154.571 134.096 155.041 134.034C155.511 133.972 155.886 133.727 156.164 133.298C156.446 132.864 156.52 132.419 156.385 131.964C156.246 131.516 155.89 131.106 155.317 130.733C154.749 130.365 154.23 130.207 153.757 130.259C153.287 130.321 152.911 130.569 152.629 131.004Z" fill="#020E10"/>
<path d="M145.234 139.352C145.517 139.03 145.831 138.766 146.174 138.558C146.517 138.35 146.853 138.225 147.18 138.183L147.469 138.827C147.126 138.886 146.809 139.002 146.517 139.175C146.225 139.358 145.967 139.577 145.744 139.83C145.461 140.152 145.306 140.446 145.281 140.714C145.255 140.982 145.344 141.205 145.547 141.384C145.705 141.523 145.876 141.578 146.06 141.551C146.251 141.528 146.473 141.423 146.727 141.237L147.574 140.617C148.342 140.052 149.01 140.02 149.58 140.521C149.952 140.849 150.121 141.259 150.089 141.751C150.051 142.248 149.821 142.736 149.399 143.215C149.151 143.497 148.87 143.725 148.556 143.899C148.243 144.084 147.928 144.187 147.61 144.207L147.329 143.554C147.625 143.525 147.91 143.435 148.182 143.284C148.455 143.145 148.686 142.968 148.875 142.754C149.153 142.438 149.302 142.144 149.322 141.871C149.342 141.598 149.25 141.373 149.048 141.194C148.732 140.916 148.345 140.946 147.888 141.283L147.049 141.911C146.653 142.202 146.285 142.364 145.946 142.396C145.613 142.433 145.3 142.323 145.007 142.065C144.63 141.732 144.462 141.319 144.506 140.827C144.555 140.34 144.798 139.848 145.234 139.352Z" fill="#020E10"/>
<path d="M140.453 144.233C141.076 143.635 141.744 143.343 142.455 143.358C143.172 143.378 143.832 143.703 144.435 144.332C144.825 144.738 145.087 145.174 145.221 145.639C145.36 146.109 145.369 146.564 145.249 147.002C145.128 147.451 144.88 147.855 144.506 148.214C143.969 148.729 143.383 148.958 142.747 148.903C142.115 148.852 141.511 148.526 140.934 147.925L140.692 147.673L143.668 144.818C143.215 144.389 142.755 144.169 142.287 144.159C141.825 144.155 141.383 144.356 140.96 144.761C140.721 144.99 140.527 145.244 140.378 145.522C140.234 145.806 140.145 146.126 140.111 146.481L139.439 146.236C139.457 145.896 139.557 145.545 139.74 145.182C139.928 144.825 140.166 144.509 140.453 144.233ZM144.022 147.742C144.396 147.383 144.58 146.983 144.573 146.542C144.566 146.101 144.4 145.672 144.073 145.257L141.675 147.558C142.076 147.943 142.481 148.153 142.889 148.188C143.292 148.229 143.669 148.08 144.022 147.742Z" fill="#020E10"/>
<path d="M135.357 148.587C136.03 148.046 136.72 147.813 137.428 147.89C138.14 147.972 138.77 148.353 139.316 149.032C139.669 149.471 139.892 149.928 139.985 150.403C140.082 150.884 140.052 151.337 139.893 151.764C139.734 152.2 139.452 152.581 139.048 152.906C138.469 153.372 137.864 153.55 137.235 153.439C136.611 153.334 136.037 152.956 135.515 152.307L135.296 152.035L138.509 149.45C138.095 148.983 137.656 148.724 137.191 148.674C136.731 148.629 136.273 148.79 135.816 149.158C135.559 149.365 135.343 149.601 135.17 149.865C135.002 150.135 134.886 150.446 134.821 150.797L134.173 150.494C134.22 150.157 134.35 149.816 134.564 149.471C134.782 149.131 135.047 148.837 135.357 148.587ZM138.607 152.393C139.011 152.069 139.229 151.686 139.26 151.246C139.292 150.806 139.163 150.365 138.875 149.922L136.285 152.005C136.651 152.424 137.036 152.669 137.439 152.74C137.837 152.815 138.226 152.699 138.607 152.393Z" fill="#020E10"/>
<path d="M126.146 154.764C126.568 154.519 126.997 154.406 127.432 154.423C127.861 154.444 128.269 154.585 128.655 154.848C129.038 155.12 129.375 155.507 129.665 156.007C129.959 156.515 130.126 156.999 130.168 157.461C130.207 157.933 130.127 158.357 129.928 158.733C129.726 159.119 129.414 159.434 128.991 159.679C128.621 159.893 128.249 160 127.875 160C127.495 160.003 127.154 159.901 126.852 159.694L128.568 162.658L127.778 163.115L123.798 156.241L124.568 155.795L125.071 156.663C125.034 156.285 125.11 155.928 125.298 155.594C125.486 155.259 125.769 154.982 126.146 154.764ZM126.347 155.494C125.905 155.75 125.641 156.111 125.555 156.577C125.473 157.05 125.601 157.579 125.94 158.164C126.283 158.756 126.677 159.13 127.125 159.288C127.572 159.446 128.016 159.397 128.459 159.141C128.907 158.881 129.174 158.518 129.26 158.052C129.34 157.589 129.208 157.062 128.865 156.47C128.527 155.885 128.135 155.509 127.691 155.341C127.243 155.183 126.795 155.234 126.347 155.494Z" fill="#020E10"/>
<path d="M119.395 158.199C120.179 157.835 120.905 157.776 121.573 158.02C122.245 158.272 122.764 158.793 123.131 159.583C123.368 160.094 123.475 160.591 123.45 161.075C123.429 161.565 123.291 161.997 123.035 162.373C122.775 162.759 122.41 163.061 121.939 163.279C121.265 163.592 120.636 163.619 120.052 163.36C119.471 163.108 119.005 162.604 118.654 161.847L118.507 161.531L122.248 159.794C121.958 159.241 121.593 158.885 121.155 158.724C120.719 158.57 120.235 158.617 119.704 158.863C119.404 159.002 119.138 159.18 118.907 159.395C118.678 159.616 118.491 159.89 118.343 160.215L117.787 159.765C117.914 159.45 118.122 159.15 118.413 158.866C118.707 158.589 119.034 158.367 119.395 158.199ZM121.634 162.675C122.104 162.457 122.408 162.138 122.544 161.719C122.681 161.299 122.662 160.84 122.489 160.341L119.474 161.74C119.728 162.235 120.043 162.565 120.418 162.731C120.786 162.899 121.191 162.881 121.634 162.675Z" fill="#020E10"/>
<path d="M113.391 160.596C113.997 160.37 114.51 160.359 114.93 160.563C115.354 160.774 115.678 161.182 115.904 161.788L116.907 164.48L117.91 164.106L118.158 164.772L117.155 165.145L117.741 166.719L116.886 167.037L116.3 165.464L114.674 166.07L114.426 165.405L116.052 164.799L115.08 162.191C114.93 161.79 114.732 161.515 114.484 161.367C114.239 161.226 113.927 161.226 113.546 161.367C113.434 161.409 113.326 161.466 113.224 161.536C113.122 161.606 113.031 161.672 112.95 161.734L112.558 161.135C112.631 161.051 112.748 160.956 112.908 160.848C113.068 160.74 113.229 160.656 113.391 160.596Z" fill="#020E10"/>
<path d="M108.845 162.014C109.206 161.911 109.55 161.886 109.878 161.941C110.201 162.004 110.481 162.135 110.718 162.333C110.954 162.531 111.116 162.782 111.202 163.085C111.312 163.468 111.301 163.799 111.17 164.079C111.032 164.361 110.749 164.614 110.321 164.838C109.888 165.071 109.274 165.302 108.48 165.529L108.133 165.628L108.229 165.964C108.357 166.412 108.543 166.706 108.787 166.848C109.025 166.998 109.347 167.015 109.751 166.9C110.069 166.809 110.362 166.674 110.632 166.495C110.903 166.324 111.165 166.092 111.417 165.801L111.904 166.354C111.685 166.627 111.397 166.878 111.041 167.105C110.676 167.334 110.314 167.5 109.953 167.604C109.274 167.798 108.724 167.776 108.304 167.537C107.877 167.299 107.563 166.831 107.363 166.13L106.413 162.815L107.237 162.58L107.497 163.49C107.546 163.14 107.688 162.833 107.925 162.57C108.155 162.309 108.462 162.123 108.845 162.014ZM108.893 162.715C108.46 162.839 108.148 163.088 107.958 163.463C107.771 163.845 107.743 164.267 107.876 164.729L107.969 165.054L108.304 164.958C108.889 164.791 109.343 164.629 109.666 164.474C109.984 164.329 110.192 164.168 110.29 163.991C110.382 163.824 110.396 163.625 110.33 163.394C110.245 163.098 110.074 162.885 109.819 162.755C109.555 162.627 109.247 162.614 108.893 162.715Z" fill="#020E10"/>
<path d="M105.497 169.988L105.708 170.991L104.605 171.223L104.394 170.22L105.497 169.988ZM103.979 163.318L105.106 168.677L104.213 168.865L103.086 163.506L103.979 163.318Z" fill="#020E10"/>
<path d="M98.0696 164.242C98.6194 164.16 99.0593 164.257 99.3893 164.535C99.7129 164.82 99.9207 165.272 100.013 165.888L100.917 171.951L100.014 172.086L99.12 166.09C99.0014 165.295 98.6264 164.945 97.9948 165.039C97.8091 165.066 97.6453 165.114 97.5033 165.18L97.4126 164.419C97.6351 164.333 97.8541 164.274 98.0696 164.242Z" fill="#020E10"/>
<path d="M93.1672 164.723C93.5941 164.69 94.0032 164.719 94.3944 164.809C94.7855 164.9 95.113 165.044 95.3768 165.243L95.1338 165.905C94.8475 165.709 94.5393 165.571 94.2092 165.49C93.8722 165.418 93.5352 165.395 93.1981 165.421C92.7712 165.454 92.4551 165.557 92.25 165.731C92.0448 165.905 91.9526 166.126 91.9732 166.396C91.9893 166.606 92.0731 166.765 92.2245 166.874C92.3766 166.991 92.6088 167.071 92.921 167.115L93.9606 167.261C94.9048 167.392 95.4059 167.836 95.4639 168.592C95.5017 169.087 95.3374 169.499 94.9709 169.828C94.5969 170.158 94.0915 170.347 93.4549 170.396C93.0804 170.425 92.72 170.392 92.3738 170.298C92.0206 170.212 91.7231 170.065 91.4812 169.858L91.7355 169.194C91.9682 169.38 92.2346 169.514 92.5348 169.596C92.828 169.687 93.1169 169.721 93.4015 169.7C93.821 169.667 94.133 169.561 94.3376 169.379C94.5421 169.198 94.6341 168.972 94.6135 168.703C94.5813 168.283 94.2836 168.035 93.7201 167.957L92.6814 167.822C92.194 167.754 91.8178 167.613 91.5529 167.4C91.2885 167.194 91.1414 166.897 91.1116 166.507C91.0731 166.006 91.2412 165.593 91.6158 165.271C91.991 164.956 92.5081 164.773 93.1672 164.723Z" fill="#020E10"/>
<path d="M88.4147 163.709L88.8454 164.033C88.6816 164.207 88.5664 164.373 88.5001 164.531C88.4262 164.682 88.3786 164.836 88.3573 164.994L88.8981 164.99L88.9072 166.139L87.758 166.148L87.7515 165.337C87.7491 165.029 87.7956 164.743 87.8912 164.48C87.9868 164.216 88.1613 163.959 88.4147 163.709Z" fill="#020E10"/>
<path d="M77.8756 164.228C78.3006 164.28 78.6958 164.389 79.0613 164.556C79.4268 164.722 79.7192 164.928 79.9385 165.175L79.5691 165.776C79.3274 165.527 79.0527 165.33 78.745 165.186C78.4289 165.049 78.1031 164.96 77.7677 164.918C77.3427 164.866 77.0125 164.904 76.7769 165.034C76.5414 165.164 76.4071 165.363 76.3739 165.632C76.3482 165.84 76.3987 166.013 76.5256 166.15C76.6517 166.294 76.8633 166.419 77.1607 166.524L78.1508 166.873C79.0504 167.188 79.4537 167.722 79.3607 168.475C79.3 168.968 79.0573 169.339 78.6328 169.589C78.2009 169.838 77.6681 169.924 77.0344 169.846C76.6616 169.8 76.3149 169.696 75.9941 169.536C75.665 169.382 75.4024 169.179 75.2063 168.928L75.587 168.327C75.7783 168.555 76.0129 168.74 76.2908 168.88C76.5603 169.027 76.8367 169.118 77.12 169.152C77.5375 169.204 77.8644 169.161 78.1009 169.024C78.3374 168.887 78.4721 168.684 78.5053 168.415C78.5568 167.998 78.3141 167.695 77.7772 167.508L76.7857 167.17C76.3215 167.007 75.9806 166.794 75.7631 166.533C75.5447 166.279 75.4595 165.958 75.5073 165.57C75.569 165.071 75.8153 164.7 76.2464 164.458C76.6765 164.223 77.2196 164.147 77.8756 164.228Z" fill="#020E10"/>
<path d="M71.1482 163.032C71.9937 163.21 72.611 163.597 73.0001 164.193C73.3877 164.796 73.492 165.524 73.313 166.377C73.1973 166.928 72.9851 167.39 72.6766 167.763C72.3666 168.143 71.9965 168.407 71.5664 168.555C71.1273 168.708 70.6542 168.732 70.1469 168.625C69.4191 168.472 68.8987 168.117 68.5858 167.56C68.2714 167.011 68.1998 166.328 68.3711 165.512L68.4428 165.17L72.4789 166.017C72.5776 165.401 72.4991 164.897 72.2436 164.506C71.9865 164.122 71.5712 163.87 70.9978 163.749C70.6743 163.681 70.3555 163.664 70.0414 163.698C69.7257 163.739 69.4116 163.846 69.0991 164.018L68.9223 163.325C69.2127 163.148 69.5593 163.033 69.962 162.979C70.3632 162.933 70.7586 162.951 71.1482 163.032ZM70.2638 167.959C70.771 168.065 71.2049 167.991 71.5653 167.737C71.9257 167.482 72.1857 167.103 72.3452 166.6L69.0921 165.917C68.9999 166.465 69.0545 166.918 69.2559 167.275C69.45 167.631 69.7859 167.858 70.2638 167.959Z" fill="#020E10"/>
<path d="M64.6784 161.28C65.5052 161.531 66.0865 161.97 66.4223 162.597C66.7559 163.232 66.7964 163.966 66.5438 164.8C66.3805 165.34 66.1289 165.781 65.7891 166.126C65.4471 166.478 65.0555 166.708 64.6141 166.818C64.1634 166.932 63.69 166.915 63.194 166.764C62.4822 166.549 61.9947 166.15 61.7315 165.568C61.4661 164.993 61.4542 164.307 61.6959 163.509L61.7972 163.174L65.7441 164.37C65.8961 163.764 65.8618 163.256 65.6413 162.843C65.4186 162.438 65.0269 162.151 64.4661 161.981C64.1498 161.885 63.8337 161.841 63.5178 161.847C63.1998 161.861 62.8776 161.94 62.5512 162.084L62.4355 161.378C62.7402 161.227 63.0955 161.142 63.5014 161.124C63.9051 161.113 64.2974 161.165 64.6784 161.28ZM63.3684 166.111C63.8644 166.261 64.3031 166.225 64.6843 166.003C65.0655 165.781 65.3575 165.426 65.5602 164.938L62.379 163.975C62.2394 164.513 62.2544 164.969 62.4239 165.342C62.5862 165.713 62.9011 165.969 63.3684 166.111Z" fill="#020E10"/>
<path d="M54.1987 157.073C54.6805 157.302 55.0478 157.605 55.3006 157.983C55.5535 158.361 55.6881 158.787 55.7043 159.26C55.7105 159.737 55.5895 160.237 55.3413 160.76C55.093 161.282 54.7837 161.688 54.4131 161.978C54.0326 162.271 53.616 162.439 53.1632 162.482C52.7105 162.524 52.2432 162.431 51.7615 162.202C51.2866 161.977 50.9227 161.675 50.6698 161.297C50.4101 160.916 50.2772 160.487 50.271 160.01C50.2547 159.536 50.3707 159.038 50.619 158.516C50.8672 157.993 51.1816 157.586 51.5621 157.292C51.9326 157.003 52.3477 156.838 52.8072 156.799C53.26 156.756 53.7238 156.847 54.1987 157.073ZM53.8844 157.735C53.423 157.515 52.9759 157.502 52.543 157.696C52.1068 157.896 51.7437 158.302 51.4535 158.912C51.1601 159.53 51.0752 160.067 51.1986 160.525C51.3221 160.983 51.6145 161.322 52.0758 161.541C52.544 161.763 52.9945 161.778 53.4275 161.584C53.8536 161.388 54.2134 160.981 54.5067 160.363C54.7969 159.752 54.8852 159.216 54.7718 158.755C54.6484 158.297 54.3526 157.957 53.8844 157.735Z" fill="#020E10"/>
<path d="M48.604 154.039C49.7377 154.704 49.9376 155.662 49.2038 156.912L47.4813 159.847L46.6941 159.385L48.4109 156.46C48.6581 156.039 48.7564 155.679 48.7058 155.379C48.6488 155.075 48.4356 154.815 48.0664 154.599C47.6647 154.363 47.2596 154.304 46.851 154.421C46.4387 154.545 46.1013 154.83 45.8389 155.277L44.2647 157.959L43.4776 157.497L46.2496 152.774L47.0173 153.225L46.5496 154.022C46.8659 153.824 47.2057 153.728 47.5691 153.732C47.9221 153.739 48.2671 153.841 48.604 154.039Z" fill="#020E10"/>
<path d="M44.5039 151.538L41.373 156.031L40.6427 155.522L41.2032 154.717C40.5849 155.092 39.8835 155.048 39.0991 154.583L38.8117 154.424L39.2072 153.739L39.7173 154.012C40.1683 154.271 40.5864 154.361 40.9715 154.281C41.3522 154.208 41.6822 153.971 41.9614 153.57L43.7458 151.01L44.5039 151.538Z" fill="#020E10"/>
<path d="M35.5719 144.403L33.2544 149.768L32.563 149.105L34.4976 144.856L30.2937 146.929L29.7325 146.391L31.6504 142.111L27.4631 144.216L26.8043 143.584L32.0743 141.05L32.7006 141.651L30.8752 145.785L34.9374 143.795L35.5719 144.403Z" fill="#020E10"/>
<path d="M28.7985 137.082C29.1436 137.489 29.3537 137.916 29.4289 138.365C29.5041 138.813 29.4519 139.257 29.2721 139.695C29.0818 140.133 28.7661 140.538 28.3251 140.913C27.8841 141.287 27.4352 141.53 26.9783 141.642C26.5109 141.753 26.0621 141.735 25.6318 141.588C25.2014 141.44 24.8137 141.164 24.4686 140.757C24.1284 140.356 23.9207 139.931 23.8454 139.483C23.7654 139.029 23.8205 138.583 24.0109 138.145C24.1906 137.707 24.501 137.301 24.942 136.927C25.383 136.552 25.8372 136.31 26.3046 136.199C26.7615 136.087 27.2075 136.107 27.6426 136.26C28.0729 136.407 28.4582 136.681 28.7985 137.082ZM28.24 137.556C27.9095 137.167 27.5072 136.971 27.033 136.97C26.553 136.973 26.0553 137.194 25.5399 137.631C25.0187 138.073 24.7203 138.529 24.6447 138.997C24.5691 139.465 24.6965 139.894 25.027 140.283C25.3624 140.678 25.7672 140.877 26.2414 140.878C26.7108 140.874 27.206 140.651 27.7272 140.208C28.2427 139.771 28.5435 139.318 28.6297 138.851C28.7053 138.383 28.5754 137.951 28.24 137.556Z" fill="#020E10"/>
<path d="M25.9723 133.626L21.5342 136.834L21.0127 136.113L21.8072 135.538C21.0998 135.688 20.4525 135.415 19.8652 134.718L19.6464 134.473L20.246 133.956L20.6375 134.382C20.9776 134.775 21.3426 134.998 21.7324 135.05C22.1161 135.107 22.5057 134.992 22.9015 134.706L25.431 132.877L25.9723 133.626Z" fill="#020E10"/>
<path d="M23.0008 129.294L16.2333 133.454L15.7554 132.676L19.931 130.109L19.9192 130.09L16.5181 129.205L15.9104 128.216L19.5964 129.178L20.4517 125.147L21.0595 126.135L20.3224 129.842L20.3342 129.861L22.5228 128.516L23.0008 129.294Z" fill="#020E10"/>
<path d="M17.7543 119.642L12.6878 121.72L12.35 120.897L13.2048 120.546C12.8363 120.519 12.5166 120.402 12.2455 120.197C11.9676 119.994 11.7545 119.712 11.6062 119.351C11.2813 118.558 11.4172 117.91 12.014 117.405C11.6316 117.384 11.2888 117.26 10.9855 117.036C10.6753 116.814 10.4403 116.508 10.2807 116.119C9.81889 114.993 10.2552 114.157 11.5896 113.609L14.7484 112.314L15.0947 113.158L11.9776 114.437C11.512 114.628 11.2056 114.851 11.0586 115.106C10.9018 115.357 10.9003 115.67 11.0543 116.045C11.2224 116.455 11.5024 116.722 11.894 116.846C12.2857 116.969 12.7248 116.931 13.2113 116.732L16.0782 115.556L16.4245 116.4L13.3074 117.679C12.8418 117.87 12.5355 118.093 12.3884 118.348C12.2316 118.599 12.2301 118.912 12.3841 119.288C12.5551 119.705 12.8365 119.975 13.2281 120.098C13.6169 120.215 14.0546 120.173 14.5411 119.974L17.408 118.798L17.7543 119.642Z" fill="#020E10"/>
<path d="M13.986 108.881C14.1367 109.392 14.1556 109.868 14.0426 110.309C13.9296 110.749 13.7021 111.133 13.3601 111.461C13.0088 111.784 12.5558 112.027 12.0009 112.191C11.4461 112.354 10.9372 112.394 10.4742 112.311C10.0019 112.223 9.59891 112.025 9.26516 111.716C8.9314 111.407 8.68917 110.997 8.53846 110.485C8.38987 109.981 8.37208 109.508 8.48508 109.068C8.59596 108.62 8.82704 108.235 9.17833 107.912C9.5203 107.584 9.9687 107.339 10.5235 107.175C11.0784 107.012 11.5919 106.974 12.0642 107.062C12.5272 107.145 12.9266 107.345 13.2625 107.661C13.5962 107.97 13.8374 108.376 13.986 108.881ZM13.2834 109.088C13.1391 108.598 12.8505 108.256 12.4176 108.062C11.9775 107.871 11.4331 107.871 10.7846 108.062C10.1289 108.255 9.67162 108.55 9.41278 108.947C9.15393 109.345 9.09668 109.788 9.24102 110.278C9.38748 110.776 9.67717 111.121 10.1101 111.314C10.5409 111.501 11.0841 111.497 11.7398 111.304C12.3883 111.113 12.8467 110.822 13.1149 110.429C13.3737 110.032 13.4299 109.585 13.2834 109.088Z" fill="#020E10"/>
<path d="M12.8029 104.576L7.44544 105.71L7.26107 104.839L8.22012 104.636C7.51273 104.486 7.03183 103.974 6.77743 103.099L6.67668 102.786L7.43432 102.556L7.61949 103.105C7.77094 103.602 8.0143 103.954 8.34957 104.159C8.67749 104.366 9.0803 104.419 9.55798 104.318L12.6115 103.672L12.8029 104.576Z" fill="#020E10"/>
<path d="M11.618 96.9616C11.7307 97.8181 11.5703 98.5286 11.137 99.0933C10.6962 99.6589 10.0438 99.9985 9.17986 100.112C8.62129 100.186 8.11504 100.139 7.66113 99.971C7.19978 99.8044 6.82819 99.5426 6.54637 99.1857C6.25612 98.8223 6.0772 98.3837 6.0096 97.8698C5.91262 97.1324 6.07503 96.5239 6.49682 96.0441C6.91117 95.5653 7.53169 95.2716 8.35839 95.1628L8.70471 95.1173L9.24252 99.2061C9.85677 99.095 10.3062 98.854 10.5908 98.4832C10.8679 98.1134 10.9683 97.638 10.8919 97.0571C10.8488 96.7294 10.7592 96.423 10.6232 96.1378C10.4798 95.8536 10.275 95.5926 10.0088 95.3549L10.6045 94.9583C10.8677 95.1737 11.0913 95.4625 11.2753 95.8247C11.4519 96.1879 11.5661 96.5669 11.618 96.9616ZM6.67696 97.7593C6.74455 98.2732 6.95807 98.658 7.31751 98.9138C7.67695 99.1696 8.12076 99.2892 8.64896 99.2728L8.21548 95.9772C7.66728 96.072 7.25814 96.2736 6.98805 96.5819C6.71698 96.8827 6.61328 97.2752 6.67696 97.7593Z" fill="#020E10"/>
<path d="M11.1517 92.8406L10.0044 92.9086L9.93641 91.7612L11.0837 91.6933L11.1517 92.8406Z" fill="#020E10"/>
<path d="M11.4882 80.1182C11.425 80.8969 11.2062 81.5499 10.8318 82.0772C10.4574 82.6045 9.95484 82.9933 9.32407 83.2436C8.69391 83.4864 7.95954 83.5738 7.12096 83.5058C6.28988 83.4383 5.58295 83.234 5.00017 82.8928C4.418 82.5441 3.98467 82.0794 3.70019 81.4986C3.41571 80.9178 3.30505 80.238 3.36823 79.4594C3.41258 78.9128 3.53939 78.4181 3.74865 77.9754C3.95852 77.5252 4.24124 77.1524 4.59681 76.8572L5.32012 77.2776C4.97022 77.5959 4.70895 77.9365 4.53632 78.2993C4.35681 78.654 4.24882 79.056 4.21237 79.5053C4.14008 80.3962 4.36557 81.1004 4.88884 81.6176C5.41212 82.1349 6.18289 82.4348 7.20116 82.5174C8.22691 82.6007 9.0397 82.4292 9.63952 82.0031C10.2393 81.5769 10.5754 80.9184 10.6477 80.0274C10.6841 79.5782 10.6461 79.1643 10.5336 78.7859C10.4143 78.3994 10.2076 78.0209 9.91356 77.6503L10.6952 77.352C10.991 77.7001 11.2099 78.1135 11.352 78.5923C11.4871 79.063 11.5325 79.5716 11.4882 80.1182Z" fill="#020E10"/>
<path d="M12.3146 74.3333C12.225 74.8819 11.9978 75.271 11.633 75.5006C11.262 75.7217 10.7688 75.7819 10.1535 75.6814L4.10398 74.6932L4.25112 73.7925L10.2339 74.7698C11.0272 74.8993 11.4753 74.649 11.5782 74.0189C11.6085 73.8335 11.6135 73.6631 11.5932 73.5076L12.3458 73.6533C12.3601 73.8916 12.3497 74.1183 12.3146 74.3333Z" fill="#020E10"/>
<path d="M6.14462 69.8639L5.1442 69.6391L5.39129 68.5397L6.39171 68.7646L6.14462 69.8639ZM12.8424 71.2539L7.49954 70.053L7.69969 69.1625L13.0426 70.3634L12.8424 71.2539Z" fill="#020E10"/>
<path d="M14.6393 64.9117C14.4827 65.4372 14.236 65.8575 13.8991 66.1726C13.5551 66.4855 13.1468 66.6852 12.6742 66.7717C12.1966 66.8489 11.6806 66.8049 11.1263 66.6397C10.2912 66.3909 9.70365 65.9689 9.36365 65.3738C9.01645 64.7765 8.96083 64.0819 9.19679 63.29C9.29332 62.9661 9.44637 62.6629 9.65594 62.3804C9.86551 62.098 10.1058 61.8835 10.3768 61.7369L10.9238 62.2291C10.66 62.3778 10.4438 62.5642 10.2751 62.7883C10.1086 63.0052 9.99209 63.2252 9.92559 63.4484C9.76257 63.9955 9.80986 64.4682 10.0675 64.8663C10.3179 65.2623 10.7634 65.5557 11.4042 65.7466C12.0305 65.9332 12.5712 65.9337 13.0263 65.7479C13.4742 65.56 13.7797 65.1925 13.9427 64.6454C14.0092 64.4222 14.0321 64.1743 14.0114 63.9016C13.9929 63.6218 13.9104 63.3463 13.7638 63.0754L14.491 62.9628C14.6376 63.2338 14.7238 63.5495 14.7497 63.9099C14.7705 64.261 14.7337 64.5949 14.6393 64.9117Z" fill="#020E10"/>
<path d="M15.8116 61.1817L8.40692 58.305L8.73743 57.4542L13.3063 59.2292L13.3144 59.2082L11.9639 55.9636L12.3841 54.8818L13.8462 58.3994L17.5743 56.6443L17.154 57.7262L13.7555 59.3796L13.7474 59.4006L16.1421 60.3309L15.8116 61.1817Z" fill="#020E10"/>
<path d="M21.5503 49.2658C21.2363 49.8304 20.8531 50.1717 20.4007 50.2897C19.9417 50.404 19.4299 50.3042 18.8654 49.9902L16.3543 48.5936L15.834 49.5291L15.2136 49.1841L15.7339 48.2486L14.2667 47.4326L14.7103 46.6349L16.1775 47.451L17.0209 45.9345L17.6413 46.2795L16.7979 47.796L19.2302 49.1488C19.6044 49.3569 19.9338 49.4369 20.2183 49.3889C20.4964 49.3372 20.7339 49.1341 20.9311 48.7796C20.9895 48.6746 21.0348 48.5622 21.067 48.4426C21.0991 48.323 21.1258 48.2132 21.147 48.1132L21.8342 48.3149C21.8327 48.4258 21.806 48.5743 21.7541 48.7603C21.7022 48.9463 21.6343 49.1148 21.5503 49.2658Z" fill="#020E10"/>
<path d="M24.3929 44.7751C24.0982 45.2197 23.7459 45.5404 23.3359 45.7373C22.926 45.9342 22.4855 46.0072 22.0146 45.9564C21.5415 45.8951 21.0639 45.7046 20.5818 45.385C20.0997 45.0655 19.7414 44.7018 19.507 44.294C19.2705 43.8759 19.1631 43.4397 19.1849 42.9854C19.2066 42.5312 19.3648 42.0818 19.6595 41.6373C19.9501 41.199 20.3003 40.8814 20.7102 40.6845C21.1243 40.4813 21.5679 40.4104 22.041 40.4717C22.512 40.5225 22.9885 40.7078 23.4706 41.0274C23.9527 41.347 24.312 41.7158 24.5485 42.134C24.7829 42.5417 24.8872 42.9759 24.8613 43.4364C24.8395 43.8906 24.6834 44.3369 24.3929 44.7751ZM23.7824 44.3705C24.0646 43.9447 24.1406 43.5039 24.0102 43.0479C23.8736 42.5878 23.5236 42.171 22.9601 41.7975C22.3903 41.4198 21.8701 41.2596 21.3994 41.3171C20.9287 41.3746 20.5522 41.6162 20.27 42.042C19.9836 42.474 19.9055 42.9179 20.0359 43.3739C20.1704 43.8235 20.5225 44.2372 21.0923 44.6149C21.6558 44.9885 22.1739 45.1517 22.6468 45.1047C23.1175 45.0472 23.496 44.8025 23.7824 44.3705Z" fill="#020E10"/>
<path d="M31.2573 36.0944C30.9712 36.413 30.6554 36.6746 30.31 36.8794C29.9646 37.0841 29.6281 37.2059 29.3004 37.2448L29.0183 36.5976C29.361 36.542 29.6795 36.4292 29.9735 36.2591C30.267 36.0785 30.5267 35.8624 30.7526 35.6109C31.0387 35.2923 31.1958 34.9993 31.224 34.7318C31.2522 34.4643 31.1657 34.2402 30.9645 34.0595C30.808 33.919 30.6374 33.8617 30.4526 33.8876C30.2622 33.9084 30.039 34.0108 29.7829 34.1948L28.9301 34.8071C28.1568 35.3646 27.4879 35.3899 26.9235 34.8829C26.5546 34.5516 26.3889 34.1403 26.4264 33.6489C26.4688 33.1519 26.7034 32.6659 27.13 32.1909C27.381 31.9114 27.6641 31.6861 27.9794 31.5149C28.2941 31.3331 28.6106 31.2337 28.9288 31.2166L29.2034 31.8721C28.907 31.8987 28.6217 31.9858 28.3477 32.1335C28.0732 32.2706 27.8405 32.4453 27.6498 32.6577C27.3687 32.9706 27.2169 33.2634 27.1943 33.5359C27.1716 33.8084 27.2609 34.035 27.4621 34.2157C27.7751 34.4967 28.162 34.4707 28.6229 34.1374L29.4673 33.5176C29.8668 33.2302 30.236 33.072 30.5748 33.0432C30.9081 33.0093 31.2201 33.1229 31.5107 33.3839C31.8852 33.7202 32.0484 34.1343 32.0003 34.6263C31.9467 35.1132 31.699 35.6026 31.2573 36.0944Z" fill="#020E10"/>
<path d="M36.0853 31.2597C35.4562 31.8516 34.7859 32.1368 34.0745 32.1151C33.3579 32.088 32.701 31.7571 32.1039 31.1225C31.7178 30.7122 31.4602 30.2739 31.3309 29.8076C31.1964 29.3359 31.1917 28.8814 31.3166 28.4441C31.4418 27.9962 31.6932 27.5947 32.0707 27.2395C32.6123 26.7299 33.201 26.506 33.8368 26.5679C34.4675 26.6243 35.0685 26.9561 35.6399 27.5634L35.8793 27.8178L32.8757 30.6438C33.3249 31.0773 33.7831 31.3012 34.2503 31.3154C34.7123 31.3241 35.1567 31.1278 35.5835 30.7263C35.8242 30.4998 36.0205 30.248 36.1724 29.971C36.3192 29.6885 36.4113 29.3698 36.4486 29.0149L37.1185 29.2664C37.0976 29.6059 36.9939 29.9561 36.8075 30.3171C36.616 30.6727 36.3753 30.9868 36.0853 31.2597ZM32.5504 27.7164C32.1729 28.0716 31.9854 28.4698 31.9879 28.9109C31.9904 29.3521 32.1527 29.7822 32.4747 30.2012L34.8956 27.9234C34.4983 27.5339 34.0956 27.3198 33.6876 27.2808C33.2851 27.2366 32.906 27.3818 32.5504 27.7164Z" fill="#020E10"/>
<path d="M41.2232 26.9549C40.5449 27.4898 39.8523 27.7155 39.1455 27.632C38.434 27.5426 37.8084 27.1558 37.2688 26.4716C36.92 26.0292 36.7014 25.5701 36.6132 25.0944C36.5204 24.6127 36.5552 24.1595 36.7177 23.7348C36.8815 23.2995 37.1669 22.9214 37.5739 22.6004C38.1578 22.1399 38.7638 21.9681 39.3918 22.0851C40.0151 22.1963 40.585 22.5792 41.1013 23.2339L41.3176 23.5082L38.0794 26.0619C38.4891 26.5329 38.926 26.7958 39.3902 26.8506C39.8498 26.8996 40.3096 26.7426 40.7697 26.3798C41.0292 26.1751 41.2467 25.9414 41.4222 25.6787C41.593 25.41 41.7124 25.1006 41.7806 24.7503L42.426 25.0592C42.3756 25.3956 42.2418 25.7354 42.0247 26.0788C41.803 26.4163 41.5358 26.7084 41.2232 26.9549ZM38.0102 23.1173C37.6032 23.4383 37.3818 23.8186 37.3458 24.2583C37.3099 24.698 37.4341 25.1406 37.7185 25.586L40.3285 23.5277C39.9666 23.1051 39.5841 22.8567 39.181 22.7823C38.7839 22.7033 38.3936 22.815 38.0102 23.1173Z" fill="#020E10"/>
<path d="M50.4937 20.8671C50.0688 21.1077 49.6388 21.2173 49.2038 21.196C48.7753 21.171 48.3692 21.0255 47.9854 20.7593C47.6045 20.483 47.2715 20.0931 46.9865 19.5898C46.6979 19.0799 46.5349 18.5938 46.4976 18.1315C46.4631 17.659 46.5472 17.2359 46.75 16.8621C46.9555 16.4781 47.2708 16.1658 47.6956 15.9252C48.0682 15.7143 48.4414 15.6109 48.815 15.6152C49.1951 15.6158 49.5352 15.721 49.8354 15.9309L48.1477 12.9501L48.9419 12.5004L52.8558 19.4131L52.0812 19.8517L51.5871 18.979C51.6201 19.3575 51.5409 19.7131 51.3495 20.0459C51.1581 20.3787 50.8728 20.6524 50.4937 20.8671ZM50.2995 20.1354C50.744 19.8837 51.0115 19.5251 51.1018 19.0596C51.1885 18.5875 51.0652 18.0574 50.7321 17.469C50.3953 16.8742 50.0041 16.4958 49.5584 16.3337C49.1128 16.1717 48.6677 16.2165 48.2232 16.4682C47.7722 16.7236 47.5015 17.084 47.4111 17.5495C47.3273 18.0114 47.4538 18.5397 47.7906 19.1345C48.1237 19.7229 48.5116 20.1031 48.9545 20.2754C49.4001 20.4374 49.8485 20.3907 50.2995 20.1354Z" fill="#020E10"/>
<path d="M57.277 17.4975C56.49 17.8536 55.7634 17.9061 55.0974 17.6551C54.4283 17.3971 53.9142 16.8712 53.555 16.0773C53.3227 15.564 53.221 15.0659 53.2498 14.5829C53.2755 14.093 53.4184 13.6615 53.6782 13.2883C53.9419 12.9052 54.3098 12.6068 54.7821 12.3932C55.4596 12.0866 56.0891 12.0656 56.6705 12.3302C57.2489 12.588 57.7099 13.0967 58.0536 13.8564L58.1976 14.1746L54.4403 15.8746C54.7247 16.4303 55.0856 16.7906 55.5229 16.9555C55.9572 17.1135 56.4413 17.0718 56.9751 16.8302C57.2763 16.694 57.5436 16.5194 57.7771 16.3066C58.0075 16.0869 58.1979 15.8153 58.3483 15.4916L58.9005 15.9467C58.7706 16.2611 58.559 16.5588 58.2657 16.8399C57.9693 17.1142 57.6398 17.3334 57.277 17.4975ZM55.0813 12.9998C54.609 13.2135 54.3026 13.5294 54.162 13.9476C54.0214 14.3657 54.0355 14.8252 54.2044 15.3259L57.2328 13.9557C56.9832 13.4585 56.6716 13.1254 56.2983 12.9563C55.9318 12.784 55.5261 12.7986 55.0813 12.9998Z" fill="#020E10"/>
<path d="M63.3041 15.1589C62.6965 15.3787 62.1834 15.3845 61.7647 15.1765C61.3434 14.9614 61.0229 14.5501 60.8032 13.9426L59.8259 11.2406L58.8193 11.6047L58.5779 10.9371L59.5845 10.5731L59.0135 8.99424L59.8718 8.68382L60.4428 10.2626L62.0746 9.67245L62.316 10.34L60.6842 10.9302L61.6308 13.5474C61.7765 13.9501 61.9724 14.2267 62.2185 14.3773C62.4622 14.5208 62.7747 14.5236 63.1562 14.3857C63.2692 14.3448 63.3771 14.2898 63.4799 14.2206C63.5827 14.1515 63.6749 14.0862 63.7565 14.0247L64.1425 14.628C64.0686 14.7107 63.9509 14.8051 63.7897 14.9114C63.6284 15.0177 63.4665 15.1002 63.3041 15.1589Z" fill="#020E10"/>
<path d="M67.8642 13.7844C67.5021 13.8843 67.1573 13.9054 66.8297 13.8478C66.5073 13.7809 66.2289 13.6473 65.9944 13.447C65.7599 13.2468 65.6007 12.9946 65.5168 12.6904C65.4109 12.3066 65.4248 11.9755 65.5584 11.6971C65.6992 11.4167 65.9847 11.1665 66.415 10.9465C66.8504 10.7172 67.4665 10.4927 68.263 10.273L68.6106 10.1771L68.5177 9.84037C68.3938 9.39141 68.2108 9.09514 67.9686 8.95157C67.7316 8.79875 67.4103 8.77829 67.0048 8.89016C66.6862 8.97807 66.3914 9.11005 66.1205 9.28609C65.8476 9.4549 65.5834 9.68364 65.328 9.9723L64.847 9.41535C65.0683 9.14392 65.3584 8.89633 65.7175 8.67258C66.0838 8.44684 66.448 8.28403 66.81 8.18413C67.4907 7.99634 68.04 8.02404 68.4577 8.26724C68.8827 8.50844 69.1921 8.98025 69.3859 9.68266L70.3029 13.0064L69.4774 13.2342L69.2257 12.3218C69.174 12.6711 69.0283 12.9763 68.7886 13.2372C68.5561 13.4961 68.248 13.6786 67.8642 13.7844ZM67.8226 13.0829C68.2571 12.963 68.571 12.7167 68.7642 12.3439C68.9555 11.9638 68.9872 11.5421 68.8593 11.0786L68.7694 10.7528L68.4327 10.8457C67.8461 11.0075 67.3907 11.1643 67.0663 11.3162C66.7472 11.4587 66.5378 11.6178 66.4382 11.7934C66.3438 11.9597 66.3286 12.1587 66.3925 12.3904C66.4744 12.6873 66.6427 12.9019 66.8974 13.0342C67.1594 13.1646 67.4678 13.1808 67.8226 13.0829Z" fill="#020E10"/>
<path d="M71.2885 5.84331L71.0873 4.83789L72.1921 4.61671L72.3934 5.62213L71.2885 5.84331ZM72.7416 12.5277L71.6667 7.15807L72.5616 6.97892L73.6365 12.3485L72.7416 12.5277Z" fill="#020E10"/>
<path d="M78.6599 11.6611C78.1093 11.7378 77.6704 11.6358 77.3431 11.3553C77.0222 11.0663 76.8188 10.613 76.7327 9.9955L75.887 3.92444L76.791 3.79851L77.6274 9.80262C77.7383 10.5987 78.1099 10.9527 78.7423 10.8646C78.9283 10.8387 79.0926 10.7931 79.2352 10.7277L79.3186 11.4897C79.0952 11.5739 78.8756 11.631 78.6599 11.6611Z" fill="#020E10"/>
<path d="M83.5666 11.2275C83.1394 11.256 82.7307 11.2232 82.3404 11.1288C81.9501 11.0344 81.624 10.8869 81.3622 10.6861L81.6116 10.0257C81.896 10.225 82.2028 10.3663 82.5321 10.4497C82.8684 10.5251 83.2052 10.5515 83.5425 10.5289C83.9697 10.5003 84.2867 10.4001 84.4936 10.2281C84.7004 10.0562 84.7948 9.83532 84.7767 9.5655C84.7627 9.35563 84.6805 9.1955 84.53 9.08511C84.3791 8.96722 84.1477 8.88482 83.8359 8.83792L82.7978 8.6815C81.8549 8.5413 81.3581 8.0927 81.3074 7.33569C81.2744 6.84102 81.4427 6.43074 81.8123 6.10486C82.1895 5.77849 82.6967 5.59399 83.3338 5.55137C83.7085 5.5263 84.0685 5.56245 84.4138 5.65981C84.7661 5.74917 85.0622 5.89876 85.3021 6.10858L85.0414 6.76971C84.8105 6.58189 84.5454 6.44528 84.2461 6.3599C83.9538 6.26653 83.6652 6.22937 83.3804 6.24842C82.9607 6.2765 82.6476 6.38025 82.4413 6.55968C82.235 6.73911 82.1408 6.96374 82.1589 7.23357C82.187 7.65329 82.4823 7.90457 83.045 7.98739L84.0824 8.13256C84.5691 8.20541 84.9439 8.34973 85.2067 8.56554C85.4691 8.77384 85.6133 9.07287 85.6394 9.46262C85.673 9.96479 85.501 10.3753 85.1233 10.6942C84.7451 11.0056 84.2262 11.1833 83.5666 11.2275Z" fill="#020E10"/>
<path d="M88.3091 12.2865L87.8814 11.959C88.047 11.7865 88.1637 11.6214 88.2316 11.4638C88.307 11.3137 88.3561 11.1598 88.3789 11.0021L87.838 11.0011L87.84 9.85182L88.9893 9.85379L88.9879 10.6651C88.9874 10.9731 88.9381 11.2584 88.84 11.5212C88.7418 11.7839 88.5649 12.039 88.3091 12.2865Z" fill="#020E10"/>
<path d="M98.8531 11.8699C98.4287 11.8133 98.0346 11.7002 97.6707 11.5304C97.3068 11.3607 97.0164 11.1515 96.7995 10.9028L97.1747 10.3049C97.414 10.5565 97.6868 10.7558 97.9931 10.9027C98.3078 11.0432 98.6327 11.1358 98.9678 11.1804C99.3922 11.237 99.7228 11.2015 99.9596 11.0739C100.196 10.9463 100.333 10.7485 100.368 10.4804C100.396 10.2719 100.347 10.0987 100.222 9.96069C100.097 9.81525 99.8865 9.68868 99.5902 9.58098L98.6036 9.22214C97.707 8.89804 97.3089 8.35996 97.4091 7.60791C97.4746 7.11648 97.7208 6.74764 98.1477 6.5014C98.582 6.25615 99.1157 6.17571 99.7486 6.26006C100.121 6.30968 100.467 6.41639 100.786 6.58018C101.113 6.73752 101.374 6.94277 101.568 7.19592L101.181 7.79236C100.992 7.56254 100.759 7.37616 100.483 7.23321C100.215 7.08381 99.9392 6.99025 99.6563 6.95254C99.2393 6.89697 98.9119 6.9367 98.6742 7.07173C98.4364 7.20677 98.2997 7.40831 98.2639 7.67637C98.2084 8.09335 98.4481 8.39812 98.9833 8.59069L99.9714 8.93837C100.434 9.10612 100.773 9.32179 100.988 9.58537C101.204 9.84149 101.286 10.1632 101.234 10.5504C101.168 11.0492 100.918 11.4176 100.485 11.6554C100.052 11.8857 99.5084 11.9572 98.8531 11.8699Z" fill="#020E10"/>
<path d="M105.568 13.13C104.725 12.9443 104.111 12.5517 103.728 11.952C103.346 11.345 103.249 10.6159 103.436 9.76492C103.557 9.21469 103.774 8.7547 104.086 8.38495C104.399 8.00786 104.772 7.74757 105.204 7.60408C105.644 7.45486 106.117 7.43594 106.624 7.54732C107.35 7.70712 107.867 8.06699 108.174 8.62691C108.484 9.17949 108.549 9.86296 108.369 10.6773L108.294 11.0184L104.267 10.1323C104.162 10.7476 104.236 11.2522 104.487 11.6461C104.741 12.0326 105.154 12.2888 105.726 12.4147C106.049 12.4857 106.367 12.5058 106.682 12.475C106.998 12.4368 107.313 12.3331 107.627 12.1638L107.797 12.8588C107.505 13.033 107.157 13.145 106.754 13.1947C106.352 13.2371 105.957 13.2155 105.568 13.13ZM106.5 8.21244C105.994 8.10106 105.56 8.17082 105.197 8.42172C104.834 8.67262 104.57 9.0492 104.406 9.55144L107.652 10.2657C107.75 9.71797 107.699 9.26466 107.502 8.90575C107.311 8.54846 106.977 8.31736 106.5 8.21244Z" fill="#020E10"/>
<path d="M112.021 14.9445C111.197 14.6861 110.62 14.2415 110.29 13.6107C109.963 12.9727 109.929 12.238 110.19 11.4065C110.358 10.8689 110.614 10.4295 110.957 10.0884C111.303 9.74004 111.697 9.51318 112.139 9.40781C112.591 9.29752 113.064 9.3199 113.559 9.47493C114.268 9.69737 114.752 10.1009 115.009 10.6855C115.269 11.2629 115.275 11.9494 115.025 12.745L114.921 13.0783L110.985 11.8448C110.828 12.4487 110.857 12.9578 111.073 13.3721C111.292 13.7792 111.681 14.0703 112.24 14.2456C112.556 14.3445 112.871 14.3922 113.187 14.3889C113.505 14.3784 113.828 14.3025 114.156 14.1612L114.265 14.8685C113.959 15.0165 113.603 15.0978 113.197 15.1122C112.793 15.1195 112.401 15.0636 112.021 14.9445ZM113.378 10.1268C112.883 9.97175 112.444 10.0034 112.061 10.2218C111.678 10.4401 111.382 10.7923 111.175 11.2783L114.347 12.2726C114.491 11.7354 114.481 11.2794 114.315 10.9046C114.156 10.5321 113.844 10.2728 113.378 10.1268Z" fill="#020E10"/>
<path d="M122.46 19.2526C121.98 19.0191 121.616 18.7121 121.367 18.3317C121.117 17.9513 120.987 17.5243 120.975 17.0507C120.974 16.5737 121.099 16.0752 121.353 15.5551C121.606 15.0351 121.919 14.6321 122.293 14.346C122.676 14.0564 123.094 13.8925 123.547 13.8541C124 13.8158 124.467 13.9134 124.946 14.147C125.419 14.3772 125.78 14.6825 126.029 15.0629C126.285 15.4466 126.414 15.877 126.416 16.354C126.427 16.8276 126.306 17.3244 126.053 17.8444C125.8 18.3644 125.482 18.7692 125.098 19.0588C124.725 19.3449 124.308 19.5055 123.848 19.5405C123.395 19.5788 122.932 19.4828 122.46 19.2526ZM122.78 18.5941C123.24 18.8178 123.687 18.835 124.121 18.6457C124.559 18.4496 124.926 18.0477 125.222 17.4399C125.522 16.8253 125.612 16.2885 125.493 15.8295C125.374 15.3704 125.085 15.0291 124.626 14.8054C124.16 14.5785 123.709 14.5597 123.274 14.749C122.846 14.9416 122.483 15.3451 122.183 15.9597C121.887 16.5675 121.794 17.1027 121.903 17.5652C122.022 18.0242 122.314 18.3672 122.78 18.5941Z" fill="#020E10"/>
<path d="M128.025 22.3407C126.898 21.6644 126.707 20.7046 127.453 19.4614L129.204 16.5435L129.986 17.013L128.241 19.9213C127.99 20.34 127.888 20.6995 127.936 20.9996C127.99 21.3037 128.201 21.5658 128.568 21.7861C128.967 22.0257 129.372 22.0889 129.782 21.9755C130.195 21.8557 130.535 21.5735 130.802 21.1291L132.402 18.4623L133.184 18.9319L130.367 23.6277L129.604 23.1697L130.079 22.3774C129.761 22.572 129.42 22.6654 129.057 22.6576C128.704 22.6473 128.36 22.5417 128.025 22.3407Z" fill="#020E10"/>
<path d="M132.1 24.8815L135.274 20.419L136 20.9349L135.432 21.7338C136.053 21.3649 136.754 21.4163 137.534 21.8881L137.82 22.0499L137.418 22.7319L136.911 22.4539C136.462 22.1902 136.045 22.0963 135.659 22.1721C135.278 22.2419 134.945 22.4757 134.662 22.8736L132.853 25.417L132.1 24.8815Z" fill="#020E10"/>
<path d="M140.963 32.1017L143.332 26.7599L144.017 27.4293L142.042 31.6591L146.266 29.6267L146.822 30.1701L144.862 34.4316L149.07 32.3675L149.723 33.0054L144.428 35.4883L143.808 34.8819L145.673 30.7649L141.592 32.716L140.963 32.1017Z" fill="#020E10"/>
<path d="M147.666 39.4879C147.324 39.0779 147.118 38.6483 147.048 38.1991C146.977 37.7499 147.033 37.307 147.217 36.8705C147.412 36.4349 147.731 36.0322 148.176 35.6622C148.621 35.2922 149.072 35.0534 149.53 34.946C149.998 34.8396 150.447 34.862 150.876 35.0133C151.305 35.1646 151.69 35.4452 152.031 35.8551C152.367 36.2593 152.571 36.686 152.642 37.1352C152.717 37.5902 152.658 38.0354 152.463 38.471C152.279 38.9075 151.965 39.3108 151.52 39.6808C151.076 40.0508 150.619 40.289 150.151 40.3955C149.693 40.5029 149.247 40.4781 148.813 40.321C148.385 40.1698 148.002 39.892 147.666 39.4879ZM148.229 39.0193C148.555 39.412 148.956 39.6113 149.43 39.6174C149.91 39.6187 150.41 39.4031 150.929 38.9706C151.455 38.5333 151.758 38.081 151.838 37.6136C151.918 37.1463 151.794 36.7163 151.468 36.3236C151.136 35.9252 150.733 35.723 150.259 35.7169C149.79 35.7166 149.292 35.9351 148.767 36.3724C148.247 36.8048 147.942 37.2543 147.851 37.7207C147.771 38.1881 147.897 38.6209 148.229 39.0193Z" fill="#020E10"/>
<path d="M150.458 42.9712L154.927 39.8062L155.442 40.5326L154.642 41.0992C155.35 40.9562 155.995 41.236 156.576 41.9387L156.792 42.1858L156.187 42.6969L155.8 42.267C155.464 41.8701 155.101 41.6437 154.712 41.588C154.329 41.528 153.938 41.6391 153.539 41.9213L150.992 43.7252L150.458 42.9712Z" fill="#020E10"/>
<path d="M153.388 47.3319L160.195 43.2375L160.666 44.0196L156.466 46.546L156.477 46.5653L159.87 47.4834L160.468 48.4779L156.791 47.4809L155.897 51.5032L155.299 50.5087L156.072 46.8092L156.06 46.7899L153.859 48.114L153.388 47.3319Z" fill="#020E10"/>
<path d="M158.541 57.0334L163.628 55.0043L163.957 55.8311L163.099 56.1735C163.467 56.2045 163.786 56.3241 164.055 56.5322C164.331 56.7375 164.542 57.0215 164.686 57.3843C165.004 58.1797 164.861 58.8269 164.26 59.3257C164.642 59.3511 164.984 59.4777 165.285 59.7053C165.593 59.9302 165.825 60.238 165.981 60.6287C166.431 61.759 165.987 62.5914 164.647 63.1258L161.476 64.3909L161.138 63.5431L164.267 62.2948C164.735 62.1083 165.043 61.8882 165.193 61.6344C165.352 61.3849 165.357 61.0717 165.206 60.695C165.042 60.2833 164.765 60.0138 164.374 59.8865C163.984 59.7592 163.544 59.793 163.056 59.9879L160.178 61.136L159.84 60.2883L162.969 59.0399C163.436 58.8534 163.745 58.6333 163.894 58.3796C164.054 58.13 164.058 57.8169 163.908 57.4401C163.741 57.0215 163.462 56.7485 163.072 56.6212C162.684 56.5009 162.246 56.5382 161.758 56.733L158.879 57.8811L158.541 57.0334Z" fill="#020E10"/>
<path d="M162.205 67.8312C162.059 67.3182 162.045 66.842 162.162 66.4026C162.28 65.9632 162.511 65.5812 162.856 65.2567C163.21 64.9374 163.666 64.6987 164.222 64.5406C164.779 64.3825 165.288 64.3471 165.75 64.4345C166.221 64.527 166.622 64.7293 166.953 65.0414C167.284 65.3535 167.522 65.7661 167.668 66.2792C167.812 66.785 167.825 67.2576 167.708 67.697C167.592 68.1436 167.358 68.5266 167.003 68.8459C166.658 69.1704 166.207 69.4117 165.651 69.5698C165.095 69.7279 164.581 69.7607 164.109 69.6681C163.647 69.5808 163.25 69.3774 162.917 69.0581C162.586 68.746 162.349 68.337 162.205 67.8312ZM162.91 67.6311C163.049 68.1224 163.335 68.467 163.766 68.6647C164.204 68.8603 164.748 68.8658 165.398 68.681C166.056 68.4942 166.516 68.2034 166.779 67.8086C167.041 67.4138 167.103 66.9707 166.963 66.4793C166.822 65.9807 166.535 65.6326 166.104 65.4349C165.675 65.2444 165.132 65.2425 164.475 65.4294C163.824 65.6141 163.363 65.9013 163.091 66.291C162.829 66.6858 162.768 67.1325 162.91 67.6311Z" fill="#020E10"/>
<path d="M163.347 72.1473L168.715 71.0649L168.891 71.9375L167.93 72.1312C168.636 72.2878 169.112 72.8048 169.358 73.6825L169.455 73.9961L168.696 74.2183L168.516 73.6683C168.369 73.1692 168.129 72.8152 167.796 72.6066C167.47 72.3964 167.068 72.3396 166.589 72.4361L163.529 73.0531L163.347 72.1473Z" fill="#020E10"/>
<path d="M164.458 79.7725C164.354 78.915 164.521 78.206 164.96 77.6455C165.406 77.0842 166.062 76.7509 166.927 76.6456C167.486 76.5775 167.992 76.6295 168.444 76.8014C168.904 76.9725 169.273 77.2378 169.551 77.5975C169.838 77.9636 170.013 78.404 170.075 78.9185C170.165 79.6567 169.997 80.2637 169.57 80.7393C169.151 81.2141 168.528 81.5019 167.7 81.6026L167.354 81.6448L166.855 77.551C166.24 77.6562 165.788 77.8928 165.5 78.2608C165.219 78.628 165.114 79.1024 165.185 79.684C165.225 80.0121 165.312 80.3194 165.445 80.6058C165.586 80.8914 165.788 81.1543 166.052 81.3947L165.452 81.7855C165.191 81.5675 164.971 81.2766 164.79 80.9126C164.617 80.5477 164.506 80.1677 164.458 79.7725ZM169.407 79.0226C169.344 78.508 169.134 78.1212 168.777 77.8619C168.42 77.6027 167.978 77.4787 167.449 77.4901L167.851 80.7897C168.4 80.7002 168.811 80.5026 169.084 80.1969C169.358 79.8987 169.466 79.5073 169.407 79.0226Z" fill="#020E10"/>
<path d="M164.885 83.8976L166.032 83.8407L166.089 84.9887L164.941 85.0455L164.885 83.8976Z" fill="#020E10"/>
<path d="M112.865 64.0755L64 112.941M111.221 96.7748C107.276 92.8304 99.1752 77.7656 112.941 63.9999C99.1752 77.7656 84.1104 69.6645 80.1659 65.7201" stroke="#020E10" stroke-width="2"/>
</svg>
