<svg width="42" height="43" viewBox="0 0 42 43" fill="none" xmlns="http://www.w3.org/2000/svg">
<path fill-rule="evenodd" clip-rule="evenodd" d="M11.0841 15.4302C12.722 13.3373 13.9955 10.901 15.749 8.9331C20.1678 11.5666 35.5667 20.5284 38.8501 22.2101C35.9698 22.2203 33.2467 22.2311 30.1256 22.5191C31.4368 25.1765 32.9387 28.234 33.7124 31.0179C29.0526 27.1938 13.1518 17.2955 11.0841 15.4302Z" stroke="#020E10" stroke-width="2" stroke-miterlimit="1.5" stroke-linecap="round" stroke-linejoin="round"/>
<path fill-rule="evenodd" clip-rule="evenodd" d="M3.13438 21.0911C5.04008 20.1619 6.79213 18.8818 8.48448 17.6123C9.89172 19.7916 14.6312 27.7571 16.4043 30.7533C14.5261 29.6393 12.2928 29.0973 10.2726 28.2911C9.93717 29.2838 9.81905 30.3355 9.53763 31.3458C9.26359 32.3299 8.81904 33.2433 8.67272 34.2649C7.15578 32.0203 3.9968 23.2579 3.13438 21.0911Z" stroke="#020E10" stroke-width="2" stroke-miterlimit="1.5" stroke-linecap="round" stroke-linejoin="round"/>
</svg>
