<svg width="80" height="80" viewBox="0 0 80 80" fill="none" xmlns="http://www.w3.org/2000/svg">
<path d="M53.4047 17.0053C38.7305 14.5184 22.2046 15.4478 11.2091 23.9143C-0.12188 32.6392 2.0543 47.51 15.4302 51.5316C17.4258 52.1317 19.3056 52.8259 21.6857 52.9906C21.823 53.0002 25.5415 62.2985 25.8251 62.3385C26.0498 62.3703 34.3754 53.917 34.4886 53.9187C36.3528 53.9457 38.2287 53.7817 40.1025 53.6105C49.4282 52.7586 58.6998 50.2191 66.1757 46.1199C82.6184 37.1039 69.6647 20.21 56.1684 17.9183M58.9248 18.5966C59.5475 18.1977 60.1355 17.7462 60.7678 17.3625M61.4876 19.5618C62.3546 18.9439 63.21 18.317 64.0875 17.7148M63.8206 20.7862C64.6872 20.1177 65.5378 19.316 66.4838 18.7601M66.1581 22.3213C67.0139 21.5768 67.9818 20.7633 68.9825 20.2084M68.6116 24.4263C69.3845 23.6956 70.2639 23.0983 71.1489 22.512M70.7929 26.9013C71.4487 26.2851 72.1006 25.6786 72.8473 25.1708M72.3789 29.4608C73.0838 28.8054 73.8609 28.1108 74.6964 27.6154M73.5849 32.6394C74.3437 31.9827 75.1685 31.4113 75.9565 30.7913M73.8258 36.4662C74.5914 35.8912 75.3216 35.2489 76.1458 34.7557M15.2239 53.2647C15.7825 52.8084 16.3818 52.3926 16.9837 51.9956M19.2318 54.3991C19.8887 53.9082 20.5749 53.4413 21.2441 52.9666M34.7419 56.3685C35.5691 55.5354 36.3894 54.6961 37.1846 53.8328M33.3911 57.7931C32.7513 58.5266 31.9869 59.1415 31.334 59.8671M30.1228 61.1879C29.0082 62.0067 28.2695 63.262 27.2592 64.1986M38.8233 55.8952C39.9352 55.1144 40.9042 54.1591 42.0411 53.4107M44.2568 55.3646C45.2105 54.4602 46.1126 53.3853 47.1985 52.6358M49.3148 54.3889C50.1475 53.3368 51.1464 52.296 52.2499 51.5153M54.7603 53.2559C55.8353 51.9464 57.0968 50.6164 58.4549 49.5939M60.4439 51.2272C61.8057 49.5513 63.6393 48.0301 65.282 46.6205M66.7428 49.3686C69.5843 45.7244 72.9089 42.4053 75.9712 38.946M71.7629 47.267C73.0285 45.7613 74.3858 44.2925 75.7147 42.8392" stroke="#FFFFFC" stroke-width="2" stroke-miterlimit="1.5" stroke-linecap="round" stroke-linejoin="round"/>
</svg>
