<svg width="32" height="32" viewBox="0 0 32 32" fill="none" xmlns="http://www.w3.org/2000/svg">
<g clip-path="url(#clip0_2696_395)">
<g clip-path="url(#clip1_2696_395)">
<path d="M6.61386 25.5456H28.4113C28.478 25.5456 28.5427 25.5361 28.6048 25.5213C28.6098 25.5213 28.6139 25.5221 28.6188 25.5221C29.0841 25.5221 29.4622 25.1445 29.4622 24.6788V0.843336C29.4622 0.377812 29.0841 0 28.6188 0H28.413H7.96264H6.61504C4.37033 0 2.54446 1.82629 2.54446 4.07037C2.54446 4.10047 2.55038 4.12904 2.55331 4.15809C2.55038 6.23107 2.52468 25.2792 2.55038 27.7833C2.54878 27.8322 2.54279 27.88 2.54279 27.9295C2.54279 30.0873 4.23239 31.8538 6.35762 31.9873C6.40026 31.9939 6.44206 32.0001 6.4863 32.0001H28.6188C29.0841 32.0001 29.4621 31.6225 29.4621 31.1567V27.9823C29.4621 27.5169 29.084 27.139 28.6188 27.139C28.1535 27.139 27.7754 27.517 27.7754 27.9823V30.3135H6.61386C5.33231 30.3135 4.28617 29.296 4.23475 28.0272C4.23601 28.0045 4.24012 27.9831 4.2397 27.9601C4.23887 27.923 4.23761 27.8654 4.23678 27.7888C4.31048 26.54 5.34694 25.5456 6.61386 25.5456ZM7.1889 4.07037C7.1889 3.60485 7.56671 3.22704 8.03224 3.22704C8.49776 3.22704 8.87557 3.60485 8.87557 4.07037V21.2008C8.87557 21.6661 8.49776 22.0441 8.03224 22.0441C7.56671 22.0441 7.1889 21.666 7.1889 21.2008V4.07037Z" fill="white"/>
</g>
</g>
<defs>
<clipPath id="clip0_2696_395">
<rect width="32" height="32" fill="white"/>
</clipPath>
<clipPath id="clip1_2696_395">
<rect width="26.9231" height="32.0001" fill="white" transform="translate(2.53906)"/>
</clipPath>
</defs>
</svg>
