<svg width="33" height="32" viewBox="0 0 33 32" fill="none" xmlns="http://www.w3.org/2000/svg">
<g clip-path="url(#clip0_2696_387)">
<g clip-path="url(#clip1_2696_387)">
<g clip-path="url(#clip2_2696_387)">
<path d="M11.7754 21.6055H21.2247V26.3301H11.7754V21.6055Z" fill="white"/>
<path d="M16.4997 3.65234C10.7683 3.65234 6.10547 8.31527 6.10547 14.0466V28.2206C6.10547 30.3047 7.80105 32.0003 9.8852 32.0003H23.1142C25.1984 32.0003 26.894 30.3047 26.894 28.2206V14.0466C26.894 8.31521 22.2312 3.65234 16.4997 3.65234ZM10.8301 12.1567H22.1693V14.0466H20.2795V15.9365H18.3896V14.0466H10.8301V12.1567ZM23.1142 28.2206H9.8852V19.7162H23.1142V28.2206Z" fill="white"/>
<path d="M26.2042 1.83877L20.8411 0L20.0566 2.288C21.9519 2.86245 23.6545 3.88336 25.0422 5.22799L26.2042 1.83877Z" fill="white"/>
<path d="M12.9425 2.288L12.158 0L6.79492 1.83877L7.95694 5.22799C9.3446 3.88342 11.0473 2.86245 12.9425 2.288Z" fill="white"/>
</g>
</g>
</g>
<defs>
<clipPath id="clip0_2696_387">
<rect width="32" height="32" fill="white" transform="translate(0.5)"/>
</clipPath>
<clipPath id="clip1_2696_387">
<rect width="32" height="32" fill="white" transform="translate(0.5)"/>
</clipPath>
<clipPath id="clip2_2696_387">
<rect width="20.7885" height="32" fill="white" transform="translate(6.10547)"/>
</clipPath>
</defs>
</svg>
