<svg width="32" height="32" viewBox="0 0 32 32" fill="none" xmlns="http://www.w3.org/2000/svg">
<g clip-path="url(#clip0_2696_398)">
<g clip-path="url(#clip1_2696_398)">
<g clip-path="url(#clip2_2696_398)">
<g clip-path="url(#clip3_2696_398)">
<path d="M4.89589 3.77637C4.89503 3.77637 4.89406 3.77637 4.8932 3.77637C4.59054 3.77637 4.30588 3.89435 4.09093 4.10876C3.87361 4.32554 3.75391 4.61419 3.75391 4.92148V22.0922C3.75391 22.7218 4.26817 23.2353 4.90042 23.237C7.5658 23.2433 12.0314 23.7988 15.112 27.0227V9.05305C15.112 8.8396 15.0575 8.63909 14.9546 8.47316C12.4262 4.40129 7.56731 3.78262 4.89589 3.77637Z" fill="white"/>
<path d="M28.2467 22.0923V4.92148C28.2467 4.61419 28.127 4.32554 27.9096 4.10876C27.6947 3.89435 27.4098 3.77637 27.1075 3.77637C27.1065 3.77637 27.1055 3.77637 27.1047 3.77637C24.4334 3.78272 19.5745 4.40139 17.046 8.47327C16.9431 8.6392 16.8887 8.83971 16.8887 9.05315V27.0227C19.9693 23.7988 24.4349 23.2433 27.1003 23.237C27.7324 23.2353 28.2467 22.7218 28.2467 22.0923Z" fill="white"/>
<path d="M30.8554 7.73633H30.0252V22.0923C30.0252 23.7 28.7153 25.0109 27.1052 25.0149C24.8444 25.0203 21.1166 25.4623 18.4766 27.961C23.0426 26.8431 27.8559 27.5698 30.5991 28.195C30.9416 28.273 31.2956 28.1924 31.57 27.9736C31.8434 27.7555 32.0003 27.4293 32.0003 27.0793V8.88122C32.0004 8.24995 31.4867 7.73633 30.8554 7.73633Z" fill="white"/>
<path d="M1.97517 22.0923V7.73633H1.14489C0.513726 7.73633 0 8.24995 0 8.88122V27.0789C0 27.4291 0.156876 27.7551 0.430331 27.9733C0.704541 28.1919 1.05816 28.2729 1.40122 28.1946C4.14439 27.5694 8.95788 26.8428 13.5237 27.9607C10.8837 25.4621 7.15596 25.0202 4.89515 25.0148C3.28513 25.0109 1.97517 23.7 1.97517 22.0923Z" fill="white"/>
</g>
</g>
</g>
</g>
<defs>
<clipPath id="clip0_2696_398">
<rect width="32" height="32" fill="white"/>
</clipPath>
<clipPath id="clip1_2696_398">
<rect width="32" height="24.4476" fill="white" transform="translate(0 3.77637)"/>
</clipPath>
<clipPath id="clip2_2696_398">
<rect width="32" height="24.4476" fill="white" transform="translate(0 3.77637)"/>
</clipPath>
<clipPath id="clip3_2696_398">
<rect width="32" height="24.4476" fill="white" transform="translate(0 3.77637)"/>
</clipPath>
</defs>
</svg>
