<svg width="1440" height="748" viewBox="0 0 1440 748" fill="none" xmlns="http://www.w3.org/2000/svg">
<path d="M0 0H1440V562.29H0V0ZM0 673.716L360 748L720 710.858H1080L1440 748V562.29H0V673.716ZM0 0H1440V562.29H0V0ZM0 673.716L360 748L720 710.858H1080L1440 748V562.29H0V673.716Z" fill="#E74040"/>
<path fill-rule="evenodd" clip-rule="evenodd" d="M0 0H1440V562.29H0V0ZM0 673.716L360 748L720 710.858H1080L1440 748V562.29H0V673.716ZM0 0H1440V562.29H0V0ZM0 673.716L360 748L720 710.858H1080L1440 748V562.29H0V673.716Z" fill="#E74040"/>
</svg>
